<svg width="160" height="50" viewBox="0 0 160 50" fill="none" xmlns="http://www.w3.org/2000/svg">
<path fill-rule="evenodd" clip-rule="evenodd" d="M38.4738 4.04536L24.8828 0.0546875L11.2918 4.04536L2.01586 14.7504L0 28.7709L5.88425 41.6557L17.8004 49.3137H31.9652L43.8813 41.6557L49.7656 28.7709L47.7497 14.7504L38.4738 4.04536ZM28.5521 12.6957C26.1563 11.9922 23.6088 11.9922 21.213 12.6957C18.8172 13.3992 16.6741 14.7765 15.0389 16.6635C13.4038 18.5506 12.3455 20.8679 11.9901 23.3395C11.6348 25.811 11.9973 28.3326 13.0346 30.6039C14.0719 32.8752 15.7401 34.8005 17.8407 36.1504C19.9413 37.5004 22.3856 38.2181 24.8825 38.2181C27.3795 38.2181 29.8238 37.5004 31.9244 36.1504C34.025 34.8005 35.6932 32.8752 36.7305 30.6039C37.7678 28.3326 38.1303 25.811 37.775 23.3395C37.4196 20.8679 36.3613 18.5506 34.7262 16.6635C33.091 14.7765 30.9479 13.3992 28.5521 12.6957Z" fill="#4A4086"/>
<path d="M71.5292 14.7909C71.5292 15.779 71.4042 16.6777 71.1542 17.4872C70.9042 18.2848 70.5292 18.9753 70.0293 19.5586C69.5412 20.142 68.9281 20.5884 68.19 20.8979C67.4638 21.2074 66.6186 21.3622 65.6544 21.3622C64.6544 21.3622 63.7853 21.2074 63.0473 20.8979C62.3092 20.5765 61.6961 20.13 61.208 19.5586C60.7199 18.9753 60.3568 18.2789 60.1188 17.4694C59.8807 16.6599 59.7616 15.7611 59.7616 14.773C59.7616 13.4635 59.9759 12.3207 60.4045 11.3445C60.833 10.3684 61.4818 9.60647 62.3509 9.05886C63.2318 8.51126 64.3389 8.23745 65.6722 8.23745C66.946 8.23745 68.0174 8.51126 68.8864 9.05886C69.7555 9.59456 70.4102 10.3565 70.8507 11.3445C71.303 12.3207 71.5292 13.4695 71.5292 14.7909ZM61.458 14.7909C61.458 15.8623 61.6068 16.7849 61.9044 17.5587C62.202 18.3325 62.6604 18.9277 63.2794 19.3443C63.9103 19.761 64.702 19.9693 65.6544 19.9693C66.6186 19.9693 67.4043 19.761 68.0114 19.3443C68.6305 18.9277 69.0888 18.3325 69.3864 17.5587C69.684 16.7849 69.8328 15.8623 69.8328 14.7909C69.8328 13.1838 69.4995 11.9278 68.8329 11.0231C68.1662 10.1065 67.1127 9.64813 65.6722 9.64813C64.7079 9.64813 63.9103 9.85646 63.2794 10.2731C62.6604 10.6779 62.202 11.2671 61.9044 12.0409C61.6068 12.8028 61.458 13.7195 61.458 14.7909ZM78.605 11.4338C78.7835 11.4338 78.974 11.4457 79.1764 11.4695C79.3907 11.4814 79.5752 11.5052 79.7299 11.541L79.5335 12.9873C79.3787 12.9516 79.2061 12.9219 79.0157 12.8981C78.8371 12.8743 78.6645 12.8623 78.4978 12.8623C78.1288 12.8623 77.7776 12.9397 77.4443 13.0945C77.1109 13.2492 76.8133 13.4695 76.5514 13.7552C76.2895 14.029 76.0812 14.3623 75.9264 14.7552C75.7836 15.148 75.7122 15.5885 75.7122 16.0766V21.1836H74.1408V11.6124H75.4265L75.605 13.3623H75.6765C75.8788 13.0052 76.1229 12.6838 76.4086 12.3981C76.6943 12.1005 77.0217 11.8683 77.3907 11.7017C77.7597 11.5231 78.1645 11.4338 78.605 11.4338ZM84.7135 20.0765C84.9516 20.0765 85.1956 20.0586 85.4456 20.0229C85.6956 19.9753 85.898 19.9277 86.0528 19.8801V21.0765C85.8861 21.1598 85.648 21.2253 85.3385 21.2729C85.029 21.3324 84.7314 21.3622 84.4456 21.3622C83.9457 21.3622 83.4814 21.2788 83.0528 21.1122C82.6362 20.9336 82.2969 20.63 82.035 20.2015C81.7731 19.7729 81.6421 19.1717 81.6421 18.3979V12.8266H80.285V12.0767L81.66 11.4517L82.285 9.416H83.2135V11.6124H85.9813V12.8266H83.2135V18.3622C83.2135 18.9455 83.3504 19.3801 83.6242 19.6658C83.9099 19.9396 84.273 20.0765 84.7135 20.0765ZM95.9691 11.6124V21.1836H94.6834L94.4513 19.9158H94.3799C94.1775 20.2491 93.9156 20.5229 93.5942 20.7372C93.2727 20.9515 92.9216 21.1062 92.5406 21.2015C92.1597 21.3086 91.7609 21.3622 91.3442 21.3622C90.5823 21.3622 89.9395 21.2431 89.4157 21.005C88.9038 20.755 88.5169 20.3741 88.255 19.8622C87.9931 19.3503 87.8621 18.6896 87.8621 17.8801V11.6124H89.4514V17.773C89.4514 18.5348 89.624 19.1063 89.9692 19.4872C90.3145 19.8681 90.8502 20.0586 91.5763 20.0586C92.2906 20.0586 92.8501 19.9277 93.2549 19.6658C93.6715 19.392 93.9632 18.9991 94.1299 18.4872C94.3084 17.9634 94.3977 17.3325 94.3977 16.5944V11.6124H95.9691ZM105.24 18.5408C105.24 19.1598 105.085 19.6777 104.775 20.0943C104.466 20.511 104.025 20.8265 103.454 21.0407C102.883 21.255 102.204 21.3622 101.418 21.3622C100.752 21.3622 100.174 21.3086 99.6862 21.2015C99.2101 21.0943 98.7875 20.9455 98.4184 20.755V19.3265C98.7994 19.517 99.2577 19.6955 99.7934 19.8622C100.341 20.017 100.895 20.0943 101.454 20.0943C102.252 20.0943 102.829 19.9693 103.186 19.7193C103.543 19.4574 103.722 19.1122 103.722 18.6836C103.722 18.4456 103.656 18.2313 103.525 18.0408C103.394 17.8503 103.156 17.6599 102.811 17.4694C102.478 17.2789 101.996 17.0646 101.365 16.8265C100.746 16.5885 100.216 16.3504 99.7755 16.1123C99.3351 15.8742 98.9958 15.5885 98.7577 15.2552C98.5196 14.9218 98.4006 14.4933 98.4006 13.9695C98.4006 13.16 98.7279 12.535 99.3827 12.0945C100.049 11.654 100.918 11.4338 101.99 11.4338C102.573 11.4338 103.115 11.4933 103.615 11.6124C104.127 11.7195 104.603 11.8743 105.043 12.0767L104.508 13.3266C104.246 13.2076 103.966 13.1064 103.668 13.0231C103.383 12.9278 103.091 12.8564 102.793 12.8088C102.496 12.7493 102.192 12.7195 101.883 12.7195C101.24 12.7195 100.746 12.8266 100.401 13.0409C100.067 13.2433 99.9005 13.523 99.9005 13.8802C99.9005 14.1421 99.9779 14.3683 100.133 14.5587C100.287 14.7373 100.543 14.9159 100.9 15.0944C101.27 15.2611 101.758 15.4635 102.365 15.7016C102.972 15.9278 103.49 16.1599 103.918 16.398C104.347 16.6361 104.674 16.9277 104.9 17.273C105.127 17.6063 105.24 18.0289 105.24 18.5408ZM120.405 21.1836L118.869 17.2373H113.816L112.298 21.1836H110.673L115.655 8.38031H117.102L122.066 21.1836H120.405ZM116.959 11.9517C116.923 11.8564 116.863 11.6838 116.78 11.4338C116.697 11.1838 116.614 10.9279 116.53 10.666C116.459 10.3922 116.399 10.1838 116.352 10.041C116.292 10.2791 116.227 10.5231 116.155 10.7731C116.096 11.0112 116.03 11.2314 115.959 11.4338C115.899 11.6362 115.846 11.8088 115.798 11.9517L114.352 15.8087H118.387L116.959 11.9517ZM128.006 12.8266H125.596V21.1836H124.024V12.8266H122.346V12.0945L124.024 11.5588V11.0052C124.024 10.1838 124.143 9.51718 124.381 9.00529C124.631 8.4934 124.988 8.11841 125.453 7.88032C125.917 7.64223 126.476 7.52318 127.131 7.52318C127.512 7.52318 127.857 7.5589 128.167 7.63032C128.488 7.68985 128.762 7.76127 128.988 7.8446L128.578 9.07672C128.387 9.0172 128.167 8.95767 127.917 8.89815C127.667 8.83863 127.411 8.80887 127.149 8.80887C126.625 8.80887 126.232 8.98744 125.971 9.34457C125.721 9.6898 125.596 10.2374 125.596 10.9874V11.6124H128.006V12.8266ZM134.198 11.4338C134.377 11.4338 134.567 11.4457 134.769 11.4695C134.984 11.4814 135.168 11.5052 135.323 11.541L135.127 12.9873C134.972 12.9516 134.799 12.9219 134.609 12.8981C134.43 12.8743 134.258 12.8623 134.091 12.8623C133.722 12.8623 133.371 12.9397 133.037 13.0945C132.704 13.2492 132.406 13.4695 132.145 13.7552C131.883 14.029 131.674 14.3623 131.52 14.7552C131.377 15.148 131.305 15.5885 131.305 16.0766V21.1836H129.734V11.6124H131.02L131.198 13.3623H131.27C131.472 13.0052 131.716 12.6838 132.002 12.3981C132.287 12.1005 132.615 11.8683 132.984 11.7017C133.353 11.5231 133.758 11.4338 134.198 11.4338ZM138.682 11.6124V21.1836H137.11V11.6124H138.682ZM137.914 8.02317C138.152 8.02317 138.36 8.1065 138.539 8.27317C138.729 8.42792 138.824 8.67792 138.824 9.02315C138.824 9.35647 138.729 9.60647 138.539 9.77313C138.36 9.9398 138.152 10.0231 137.914 10.0231C137.652 10.0231 137.432 9.9398 137.253 9.77313C137.075 9.60647 136.985 9.35647 136.985 9.02315C136.985 8.67792 137.075 8.42792 137.253 8.27317C137.432 8.1065 137.652 8.02317 137.914 8.02317ZM145.553 21.3622C144.708 21.3622 143.952 21.1895 143.285 20.8443C142.631 20.4991 142.113 19.9634 141.732 19.2372C141.363 18.511 141.178 17.5825 141.178 16.4516C141.178 15.273 141.375 14.3147 141.767 13.5766C142.16 12.8385 142.69 12.2969 143.357 11.9517C144.035 11.6064 144.803 11.4338 145.66 11.4338C146.148 11.4338 146.619 11.4874 147.071 11.5945C147.523 11.6898 147.892 11.8088 148.178 11.9517L147.696 13.2552C147.41 13.1481 147.077 13.0469 146.696 12.9516C146.315 12.8564 145.958 12.8088 145.625 12.8088C144.982 12.8088 144.452 12.9457 144.035 13.2195C143.619 13.4933 143.309 13.898 143.107 14.4337C142.904 14.9694 142.803 15.6361 142.803 16.4337C142.803 17.1956 142.904 17.8444 143.107 18.3801C143.309 18.9158 143.613 19.3205 144.017 19.5943C144.422 19.8681 144.928 20.005 145.535 20.005C146.059 20.005 146.517 19.9515 146.91 19.8443C147.315 19.7372 147.684 19.6062 148.017 19.4515V20.8443C147.696 21.011 147.339 21.136 146.946 21.2193C146.565 21.3145 146.101 21.3622 145.553 21.3622ZM153.918 11.4517C155.085 11.4517 155.948 11.7076 156.508 12.2195C157.067 12.7314 157.347 13.5469 157.347 14.6659V21.1836H156.204L155.901 19.8265H155.829C155.555 20.1717 155.27 20.4634 154.972 20.7015C154.686 20.9276 154.353 21.0943 153.972 21.2015C153.603 21.3086 153.151 21.3622 152.615 21.3622C152.043 21.3622 151.526 21.261 151.061 21.0586C150.609 20.8562 150.252 20.5467 149.99 20.13C149.728 19.7015 149.597 19.1658 149.597 18.5229C149.597 17.5706 149.972 16.8385 150.722 16.3266C151.472 15.8028 152.627 15.5171 154.186 15.4694L155.811 15.4159V14.8444C155.811 14.0468 155.639 13.4933 155.293 13.1838C154.948 12.8743 154.46 12.7195 153.829 12.7195C153.329 12.7195 152.853 12.7969 152.401 12.9516C151.948 13.0945 151.526 13.2611 151.133 13.4516L150.651 12.2731C151.067 12.0469 151.561 11.8564 152.133 11.7017C152.704 11.535 153.299 11.4517 153.918 11.4517ZM154.383 16.5587C153.192 16.6063 152.365 16.7968 151.901 17.1301C151.448 17.4634 151.222 17.9337 151.222 18.5408C151.222 19.0765 151.383 19.4693 151.704 19.7193C152.038 19.9693 152.46 20.0943 152.972 20.0943C153.782 20.0943 154.454 19.8741 154.99 19.4336C155.526 18.9813 155.793 18.2908 155.793 17.3622V16.5051L154.383 16.5587ZM65.8686 28.666C65.1901 28.666 64.577 28.785 64.0294 29.0231C63.4818 29.2493 63.0175 29.5886 62.6366 30.041C62.2556 30.4814 61.964 31.0231 61.7616 31.6659C61.5592 32.2969 61.458 33.0111 61.458 33.8087C61.458 34.8563 61.6187 35.767 61.9401 36.5408C62.2735 37.3146 62.7616 37.9098 63.4044 38.3265C64.0591 38.7431 64.8746 38.9515 65.8508 38.9515C66.4103 38.9515 66.94 38.9039 67.44 38.8086C67.94 38.7134 68.4281 38.5943 68.9043 38.4515V39.8443C68.4281 40.0229 67.9341 40.1538 67.4222 40.2372C66.9222 40.3205 66.321 40.3622 65.6186 40.3622C64.321 40.3622 63.2377 40.0943 62.3687 39.5586C61.4997 39.0229 60.8449 38.261 60.4045 37.2729C59.9759 36.2849 59.7616 35.1242 59.7616 33.7909C59.7616 32.8266 59.8926 31.9457 60.1545 31.1481C60.4283 30.3505 60.8211 29.66 61.333 29.0767C61.8568 28.4934 62.4997 28.047 63.2615 27.7374C64.0234 27.416 64.8984 27.2553 65.8865 27.2553C66.5412 27.2553 67.1722 27.3208 67.7793 27.4517C68.3864 27.5827 68.9281 27.7672 69.4043 28.0053L68.7614 29.3624C68.3686 29.1838 67.9281 29.0231 67.44 28.8803C66.9638 28.7374 66.44 28.666 65.8686 28.666ZM75.0976 30.4517C76.2643 30.4517 77.1274 30.7076 77.6869 31.2195C78.2464 31.7314 78.5261 32.5469 78.5261 33.6659V40.1836H77.3833L77.0797 38.8265H77.0083C76.7345 39.1717 76.4488 39.4634 76.1512 39.7015C75.8655 39.9276 75.5322 40.0943 75.1512 40.2015C74.7822 40.3086 74.3298 40.3622 73.7941 40.3622C73.2227 40.3622 72.7048 40.261 72.2406 40.0586C71.7882 39.8562 71.4311 39.5467 71.1692 39.13C70.9073 38.7015 70.7763 38.1658 70.7763 37.5229C70.7763 36.5706 71.1513 35.8385 71.9013 35.3266C72.6513 34.8028 73.806 34.5171 75.3655 34.4694L76.9905 34.4159V33.8444C76.9905 33.0468 76.8178 32.4933 76.4726 32.1838C76.1274 31.8743 75.6393 31.7195 75.0084 31.7195C74.5084 31.7195 74.0322 31.7969 73.5798 31.9516C73.1274 32.0945 72.7048 32.2611 72.312 32.4516L71.8299 31.2731C72.2465 31.0469 72.7406 30.8564 73.312 30.7017C73.8834 30.535 74.4786 30.4517 75.0976 30.4517ZM75.5619 35.5587C74.3715 35.6063 73.5441 35.7968 73.0798 36.1301C72.6275 36.4634 72.4013 36.9337 72.4013 37.5408C72.4013 38.0765 72.562 38.4693 72.8834 38.7193C73.2167 38.9693 73.6393 39.0943 74.1512 39.0943C74.9607 39.0943 75.6333 38.8741 76.169 38.4336C76.7047 37.9813 76.9726 37.2908 76.9726 36.3622V35.5051L75.5619 35.5587ZM86.0357 30.4338C87.2143 30.4338 88.1607 30.8445 88.875 31.6659C89.6011 32.4873 89.9642 33.7254 89.9642 35.3801C89.9642 36.4634 89.7976 37.3801 89.4642 38.1301C89.1428 38.8681 88.6845 39.4277 88.0893 39.8086C87.5059 40.1776 86.8155 40.3622 86.0179 40.3622C85.5298 40.3622 85.0953 40.2967 84.7143 40.1657C84.3334 40.0348 84.006 39.8681 83.7322 39.6657C83.4703 39.4515 83.2441 39.2193 83.0537 38.9693H82.9465C82.9703 39.1717 82.9941 39.4277 83.0179 39.7372C83.0418 40.0467 83.0537 40.3145 83.0537 40.5407V44.4692H81.4823V30.6124H82.768L82.9822 31.9159H83.0537C83.2441 31.6421 83.4703 31.3921 83.7322 31.1659C84.006 30.9398 84.3274 30.7612 84.6965 30.6302C85.0774 30.4993 85.5238 30.4338 86.0357 30.4338ZM85.75 31.7552C85.1072 31.7552 84.5893 31.8802 84.1965 32.1302C83.8036 32.3683 83.5179 32.7314 83.3394 33.2195C83.1608 33.7075 83.0656 34.3266 83.0537 35.0766V35.3801C83.0537 36.1658 83.137 36.8325 83.3037 37.3801C83.4703 37.9277 83.7501 38.3443 84.1429 38.6301C84.5477 38.9158 85.0953 39.0586 85.7857 39.0586C86.3691 39.0586 86.8452 38.8979 87.2143 38.5765C87.5952 38.2551 87.875 37.8206 88.0535 37.2729C88.244 36.7134 88.3393 36.0765 88.3393 35.3623C88.3393 34.2671 88.125 33.3921 87.6964 32.7373C87.2798 32.0826 86.631 31.7552 85.75 31.7552ZM94.0397 30.6124V40.1836H92.4683V30.6124H94.0397ZM93.2719 27.0232C93.51 27.0232 93.7183 27.1065 93.8969 27.2732C94.0874 27.4279 94.1826 27.6779 94.1826 28.0231C94.1826 28.3565 94.0874 28.6065 93.8969 28.7731C93.7183 28.9398 93.51 29.0231 93.2719 29.0231C93.01 29.0231 92.7898 28.9398 92.6112 28.7731C92.4326 28.6065 92.3433 28.3565 92.3433 28.0231C92.3433 27.6779 92.4326 27.4279 92.6112 27.2732C92.7898 27.1065 93.01 27.0232 93.2719 27.0232ZM100.268 39.0765C100.506 39.0765 100.751 39.0586 101.001 39.0229C101.251 38.9753 101.453 38.9277 101.608 38.8801V40.0765C101.441 40.1598 101.203 40.2253 100.893 40.2729C100.584 40.3324 100.286 40.3622 100.001 40.3622C99.5006 40.3622 99.0363 40.2788 98.6077 40.1122C98.1911 39.9336 97.8518 39.63 97.5899 39.2015C97.328 38.7729 97.197 38.1717 97.197 37.3979V31.8266H95.8399V31.0767L97.2149 30.4517L97.8399 28.416H98.7684V30.6124H101.536V31.8266H98.7684V37.3622C98.7684 37.9455 98.9053 38.3801 99.1791 38.6658C99.4648 38.9396 99.8279 39.0765 100.268 39.0765ZM107.149 30.4517C108.316 30.4517 109.179 30.7076 109.738 31.2195C110.298 31.7314 110.578 32.5469 110.578 33.6659V40.1836H109.435L109.131 38.8265H109.06C108.786 39.1717 108.5 39.4634 108.203 39.7015C107.917 39.9276 107.584 40.0943 107.203 40.2015C106.834 40.3086 106.381 40.3622 105.846 40.3622C105.274 40.3622 104.756 40.261 104.292 40.0586C103.84 39.8562 103.483 39.5467 103.221 39.13C102.959 38.7015 102.828 38.1658 102.828 37.5229C102.828 36.5706 103.203 35.8385 103.953 35.3266C104.703 34.8028 105.857 34.5171 107.417 34.4694L109.042 34.4159V33.8444C109.042 33.0468 108.869 32.4933 108.524 32.1838C108.179 31.8743 107.691 31.7195 107.06 31.7195C106.56 31.7195 106.084 31.7969 105.631 31.9516C105.179 32.0945 104.756 32.2611 104.363 32.4516L103.881 31.2731C104.298 31.0469 104.792 30.8564 105.363 30.7017C105.935 30.535 106.53 30.4517 107.149 30.4517ZM107.613 35.5587C106.423 35.6063 105.596 35.7968 105.131 36.1301C104.679 36.4634 104.453 36.9337 104.453 37.5408C104.453 38.0765 104.613 38.4693 104.935 38.7193C105.268 38.9693 105.691 39.0943 106.203 39.0943C107.012 39.0943 107.685 38.8741 108.221 38.4336C108.756 37.9813 109.024 37.2908 109.024 36.3622V35.5051L107.613 35.5587ZM115.105 40.1836H113.534V26.6125H115.105V40.1836Z" fill="#4A4086"/>
</svg>
